Title: Mój rower aka My Father's Bike

Plot: Grandfather's wife unexpectedly leaves him for another man and this sparks a series of events. His son and grandson arrive from abroad and set of for a journey to find a woman dear to each of them.

Audio: Polish

Subtitles: ENGLISH, SPANISH and BRAZILIAN PORTUGUESE

IMDB: http://www.imdb.com/title/tt2209426/


General
Complete name                    : My.Fathers.Bike.2012.BRRip.XviD.AC3.HORiZON-ArtSubs
Format                           : AVI
Format/Info                      : Audio Video Interleave
File size                        : 1.37 GiB
Duration                         : 1h 37mn
Overall bit rate                 : 1 999 Kbps
Writing application              : FairUse Wizard - http://fairusewizard.com
Writing library                  : The best and REALLY easy backup tool

Video
ID                               : 0
Format                           : MPEG-4 Visual
Format profile                   : Advanced Simple@L5
Format settings, BVOP            : Yes
Format settings, QPel            : No
Format settings, GMC             : No warppoints
Format settings, Matrix          : Default (H.263)
Muxing mode                      : Packed bitstream
Codec ID                         : XVID
Codec ID/Hint                    : XviD
Duration                         : 1h 37mn
Bit rate                         : 1 542 Kbps
Width                            : 688 pixels
Height                           : 336 pixels
Display aspect ratio             : 2.048
Frame rate                       : 23.976 fps
Color space                      : YUV
Chroma subsampling               : 4:2:0
Bit depth                        : 8 bits
Scan type                        : Progressive
Compression mode                 : Lossy
Bits/(Pixel*Frame)               : 0.278
Stream size                      : 1.05 GiB (77%)
Writing library                  : XviD 1.1.0 (UTC 2005-11-22)

Audio
ID                               : 1
Format                           : AC-3
Format/Info                      : Audio Coding 3
Mode extension                   : CM (complete main)
Codec ID                         : 2000
Duration                         : 1h 37mn
Bit rate mode                    : Constant
Bit rate                         : 448 Kbps
Channel(s)                       : 6 channels
Channel positions                : Front: L C R, Side: L R, LFE
Sampling rate                    : 48.0 KHz
Bit depth                        : 16 bits
Compression mode                 : Lossy
Stream size                      : 314 MiB (22%)
Alignment                        : Split accross interleaves
Interleave, duration             : 42 ms (1.00 video frame)
Interleave, preload duration     : 500 ms

